<svg xmlns="http://www.w3.org/2000/svg" width="1600" height="900" viewBox="0 0 1600 900" preserveAspectRatio="xMidYMid slice">
  <defs>
    <style>
      @keyframes circuitPulse {
        0%, 100% { opacity: calc(var(--base-op) * 0.6); }
        50% { opacity: calc(var(--base-op) * 1.3); }
      }
      @media (prefers-reduced-motion: reduce) {
        path, circle { animation: none !important; opacity: var(--base-op) !important; }
      }
    </style>
    <pattern id="grid" width="40" height="40" patternUnits="userSpaceOnUse">
      <path d="M 40 0 L 0 0 0 40" fill="none" stroke="#0c3218" stroke-width="1"/>
    </pattern>
  </defs>
  <rect width="1600" height="900" fill="#071a0f"/>
  <rect width="1600" height="900" fill="url(#grid)"/>
  <path d="M1564,394 L1564,484 L1564,388 L1600,388 L1600,388 L1600,388 L1600,388 L1600,388 L1500,388" stroke="#00b34d" stroke-width="2" fill="none" stroke-linecap="round" style="animation: circuitPulse 4.13s ease-in-out infinite; animation-delay: -1.71s; --base-op: 0.36;"/><path d="M1008,277 L1081,277 L1148,277 L1233,277" stroke="#00cc33" stroke-width="3" fill="none" stroke-linecap="round" style="animation: circuitPulse 3.27s ease-in-out infinite; animation-delay: -1.25s; --base-op: 0.36;"/><path d="M117,627 L57,627 L0,627 L0,627 L0,627" stroke="#00b34d" stroke-width="2" fill="none" stroke-linecap="round" style="animation: circuitPulse 2.55s ease-in-out infinite; animation-delay: -0.26s; --base-op: 0.56;"/><path d="M653,107 L653,0 L653,0 L653,0 L653,0 L653,0" stroke="#78ffb4" stroke-width="1" fill="none" stroke-linecap="round" style="animation: circuitPulse 2.69s ease-in-out infinite; animation-delay: -5.91s; --base-op: 0.36;"/><path d="M1335,883 L1441,883 L1582,883 L1600,883" stroke="#00b34d" stroke-width="2" fill="none" stroke-linecap="round" style="animation: circuitPulse 2.63s ease-in-out infinite; animation-delay: -2.76s; --base-op: 0.51;"/><path d="M1332,239 L1332,337 L1332,478 L1332,588 L1332,633 L1332,793 L1332,873 L1332,900 L1332,746" stroke="#00b34d" stroke-width="2" fill="none" stroke-linecap="round" style="animation: circuitPulse 4.48s ease-in-out infinite; animation-delay: -3.07s; --base-op: 0.69;"/><path d="M1149,459 L1220,459 L1298,459 L1408,459 L1265,459 L1148,459 L1049,459" stroke="#00b34d" stroke-width="2" fill="none" stroke-linecap="round" style="animation: circuitPulse 5.88s ease-in-out infinite; animation-delay: -1.46s; --base-op: 0.37;"/><path d="M466,84 L401,84 L242,84 L113,84 L30,84 L0,84" stroke="#78ffb4" stroke-width="1" fill="none" stroke-linecap="round" style="animation: circuitPulse 5.87s ease-in-out infinite; animation-delay: -5.16s; --base-op: 0.39;"/><path d="M43,39 L0,39 L0,39 L0,39 L0,199 L0,309" stroke="#78ffb4" stroke-width="2" fill="none" stroke-linecap="round" style="animation: circuitPulse 3.11s ease-in-out infinite; animation-delay: -4.87s; --base-op: 0.49;"/><path d="M436,422 L436,498 L436,540 L436,690 L436,757 L520,757 L587,757 L587,839 L587,900" stroke="#78ffb4" stroke-width="1" fill="none" stroke-linecap="round" style="animation: circuitPulse 3.08s ease-in-out infinite; animation-delay: -3.32s; --base-op: 0.58;"/><path d="M886,848 L886,899 L886,900 L886,900 L886,900 L886,900 L886,900" stroke="#0aff9d" stroke-width="1" fill="none" stroke-linecap="round" style="animation: circuitPulse 2.52s ease-in-out infinite; animation-delay: -0.31s; --base-op: 0.52;"/><path d="M773,351 L619,351 L619,398 L619,507 L619,613 L619,696 L619,782 L619,900" stroke="#39ff14" stroke-width="1" fill="none" stroke-linecap="round" style="animation: circuitPulse 4.27s ease-in-out infinite; animation-delay: -5.91s; --base-op: 0.51;"/><path d="M1358,374 L1276,374 L1276,459 L1276,506 L1276,612 L1276,511" stroke="#78ffb4" stroke-width="2" fill="none" stroke-linecap="round" style="animation: circuitPulse 4.69s ease-in-out infinite; animation-delay: -0.74s; --base-op: 0.51;"/><path d="M91,615 L29,615 L0,615 L0,615" stroke="#39ff14" stroke-width="2" fill="none" stroke-linecap="round" style="animation: circuitPulse 5.63s ease-in-out infinite; animation-delay: -0.83s; --base-op: 0.33;"/><path d="M598,431 L720,431 L762,431 L922,431 L1011,431 L1149,431 L1189,431 L1281,431" stroke="#00cc33" stroke-width="2" fill="none" stroke-linecap="round" style="animation: circuitPulse 2.68s ease-in-out infinite; animation-delay: -3.66s; --base-op: 0.65;"/><path d="M1210,360 L1283,360 L1349,360 L1472,360 L1472,296 L1472,169" stroke="#00cc33" stroke-width="1" fill="none" stroke-linecap="round" style="animation: circuitPulse 5.94s ease-in-out infinite; animation-delay: -5.44s; --base-op: 0.36;"/><path d="M76,448 L161,448 L204,448 L348,448 L406,448 L484,448 L584,448 L693,448" stroke="#39ff14" stroke-width="3" fill="none" stroke-linecap="round" style="animation: circuitPulse 4.14s ease-in-out infinite; animation-delay: -3.47s; --base-op: 0.35;"/><path d="M555,175 L555,91 L555,228 L555,71 L555,0 L555,0" stroke="#00b34d" stroke-width="2" fill="none" stroke-linecap="round" style="animation: circuitPulse 2.9s ease-in-out infinite; animation-delay: -2.6s; --base-op: 0.62;"/><path d="M1324,220 L1324,167 L1324,55 L1324,0 L1324,130 L1324,230" stroke="#00b34d" stroke-width="2" fill="none" stroke-linecap="round" style="animation: circuitPulse 5.54s ease-in-out infinite; animation-delay: -2.83s; --base-op: 0.49;"/><path d="M1128,482 L1128,404 L1128,269 L1128,138" stroke="#0aff9d" stroke-width="2" fill="none" stroke-linecap="round" style="animation: circuitPulse 4.84s ease-in-out infinite; animation-delay: -2.41s; --base-op: 0.61;"/><path d="M892,622 L892,486 L892,423 L892,294 L892,192 L892,47 L892,0 L781,0" stroke="#00cc33" stroke-width="1" fill="none" stroke-linecap="round" style="animation: circuitPulse 4.79s ease-in-out infinite; animation-delay: -1.73s; --base-op: 0.57;"/><path d="M364,668 L364,576 L364,438 L364,350" stroke="#0aff9d" stroke-width="1" fill="none" stroke-linecap="round" style="animation: circuitPulse 2.84s ease-in-out infinite; animation-delay: -3.85s; --base-op: 0.74;"/><path d="M383,525 L315,525 L240,525 L398,525 L459,525" stroke="#00cc33" stroke-width="3" fill="none" stroke-linecap="round" style="animation: circuitPulse 5.87s ease-in-out infinite; animation-delay: -2.67s; --base-op: 0.62;"/><path d="M1017,818 L899,818 L783,818 L700,818 L562,818 L438,818 L438,737 L482,737" stroke="#00ff41" stroke-width="1" fill="none" stroke-linecap="round" style="animation: circuitPulse 4.69s ease-in-out infinite; animation-delay: -5.38s; --base-op: 0.35;"/><path d="M1484,233 L1484,89 L1600,89 L1600,89 L1600,89 L1600,158 L1600,287 L1600,440 L1600,550" stroke="#00cc33" stroke-width="2" fill="none" stroke-linecap="round" style="animation: circuitPulse 4.27s ease-in-out infinite; animation-delay: -1.4s; --base-op: 0.73;"/><path d="M1025,368 L1168,368 L1215,368 L1352,368 L1498,368 L1550,368 L1550,494" stroke="#78ffb4" stroke-width="1" fill="none" stroke-linecap="round" style="animation: circuitPulse 3.32s ease-in-out infinite; animation-delay: -3.43s; --base-op: 0.31;"/><path d="M1122,100 L976,100 L822,100 L822,183 L822,332 L822,446 L822,527" stroke="#0aff9d" stroke-width="2" fill="none" stroke-linecap="round" style="animation: circuitPulse 5.35s ease-in-out infinite; animation-delay: -1.17s; --base-op: 0.35;"/><path d="M1157,770 L1313,770 L1191,770 L1075,770 L966,770 L926,770 L872,770 L721,770" stroke="#0aff9d" stroke-width="1" fill="none" stroke-linecap="round" style="animation: circuitPulse 4.45s ease-in-out infinite; animation-delay: -5.18s; --base-op: 0.58;"/><path d="M1385,776 L1237,776 L1104,776 L1023,776 L1164,776 L1226,776 L1325,776 L1465,776 L1587,776" stroke="#00ff41" stroke-width="2" fill="none" stroke-linecap="round" style="animation: circuitPulse 5.81s ease-in-out infinite; animation-delay: -5.87s; --base-op: 0.35;"/><path d="M1242,582 L1121,582 L964,582 L895,582 L758,582 L646,582" stroke="#39ff14" stroke-width="1" fill="none" stroke-linecap="round" style="animation: circuitPulse 3.34s ease-in-out infinite; animation-delay: -1.96s; --base-op: 0.7;"/><path d="M487,787 L487,862 L487,778 L487,648 L607,648 L725,648 L818,648 L867,648" stroke="#00cc33" stroke-width="2" fill="none" stroke-linecap="round" style="animation: circuitPulse 4.55s ease-in-out infinite; animation-delay: -3.06s; --base-op: 0.56;"/><path d="M1277,282 L1277,322 L1277,378 L1277,463 L1277,617 L1277,702" stroke="#00ff41" stroke-width="2" fill="none" stroke-linecap="round" style="animation: circuitPulse 2.97s ease-in-out infinite; animation-delay: -4.1s; --base-op: 0.63;"/><path d="M1128,541 L1055,541 L905,541 L992,541 L1087,541" stroke="#00b34d" stroke-width="2" fill="none" stroke-linecap="round" style="animation: circuitPulse 2.79s ease-in-out infinite; animation-delay: -0.77s; --base-op: 0.5;"/><path d="M744,10 L695,10 L603,10 L492,10 L424,10" stroke="#39ff14" stroke-width="1" fill="none" stroke-linecap="round" style="animation: circuitPulse 3.78s ease-in-out infinite; animation-delay: -4.44s; --base-op: 0.38;"/><path d="M1005,874 L1005,900 L1005,900 L1005,900" stroke="#00b34d" stroke-width="1" fill="none" stroke-linecap="round" style="animation: circuitPulse 2.51s ease-in-out infinite; animation-delay: -3.43s; --base-op: 0.34;"/><path d="M952,337 L952,401 L952,546 L952,703 L890,703" stroke="#39ff14" stroke-width="1" fill="none" stroke-linecap="round" style="animation: circuitPulse 5.03s ease-in-out infinite; animation-delay: -4.19s; --base-op: 0.6;"/><path d="M560,394 L604,394 L684,394 L762,394" stroke="#00cc33" stroke-width="3" fill="none" stroke-linecap="round" style="animation: circuitPulse 4.84s ease-in-out infinite; animation-delay: -4.19s; --base-op: 0.55;"/><path d="M1118,894 L1225,894 L1303,894 L1424,894 L1424,900" stroke="#0aff9d" stroke-width="1" fill="none" stroke-linecap="round" style="animation: circuitPulse 2.62s ease-in-out infinite; animation-delay: -4.33s; --base-op: 0.59;"/><path d="M1259,39 L1259,0 L1259,0 L1259,0 L1259,0 L1259,0 L1259,0" stroke="#00b34d" stroke-width="1" fill="none" stroke-linecap="round" style="animation: circuitPulse 5.13s ease-in-out infinite; animation-delay: -4.92s; --base-op: 0.56;"/><path d="M156,181 L156,298 L156,429 L156,281 L156,153 L156,50 L156,0 L156,0" stroke="#39ff14" stroke-width="2" fill="none" stroke-linecap="round" style="animation: circuitPulse 3.11s ease-in-out infinite; animation-delay: -2.13s; --base-op: 0.54;"/><path d="M405,279 L405,419 L405,366 L405,515 L405,420" stroke="#78ffb4" stroke-width="1" fill="none" stroke-linecap="round" style="animation: circuitPulse 3.02s ease-in-out infinite; animation-delay: -5.79s; --base-op: 0.42;"/><path d="M884,800 L831,800 L722,800 L626,800 L560,800 L409,800 L409,900 L409,900" stroke="#00cc33" stroke-width="1" fill="none" stroke-linecap="round" style="animation: circuitPulse 4.14s ease-in-out infinite; animation-delay: -4.42s; --base-op: 0.31;"/><path d="M88,470 L15,470 L0,470 L0,470 L0,470 L0,470 L40,470" stroke="#39ff14" stroke-width="3" fill="none" stroke-linecap="round" style="animation: circuitPulse 2.76s ease-in-out infinite; animation-delay: -0.42s; --base-op: 0.7;"/><path d="M1564,188 L1600,188 L1600,188 L1600,188 L1600,188 L1600,188" stroke="#00b34d" stroke-width="1" fill="none" stroke-linecap="round" style="animation: circuitPulse 5.75s ease-in-out infinite; animation-delay: -3.4s; --base-op: 0.6;"/><path d="M491,494 L409,494 L279,494 L125,494 L43,494 L0,494 L0,494" stroke="#0aff9d" stroke-width="1" fill="none" stroke-linecap="round" style="animation: circuitPulse 4.4s ease-in-out infinite; animation-delay: -0.81s; --base-op: 0.56;"/><path d="M681,547 L681,414 L681,361 L681,276 L681,218 L681,100 L681,60 L681,12 L681,0" stroke="#00cc33" stroke-width="1" fill="none" stroke-linecap="round" style="animation: circuitPulse 3.05s ease-in-out infinite; animation-delay: -0.98s; --base-op: 0.42;"/><path d="M1071,387 L1071,539 L1071,605 L1071,665 L1071,758 L1071,860 L1071,900" stroke="#39ff14" stroke-width="2" fill="none" stroke-linecap="round" style="animation: circuitPulse 2.91s ease-in-out infinite; animation-delay: -0.63s; --base-op: 0.58;"/><path d="M1002,82 L907,82 L841,82 L706,82 L631,82 L580,82 L500,82 L357,82 L259,82" stroke="#78ffb4" stroke-width="1" fill="none" stroke-linecap="round" style="animation: circuitPulse 3.39s ease-in-out infinite; animation-delay: -3.93s; --base-op: 0.41;"/><path d="M1392,559 L1392,621 L1392,727 L1392,775 L1465,775 L1465,687 L1465,807 L1465,666" stroke="#00b34d" stroke-width="3" fill="none" stroke-linecap="round" style="animation: circuitPulse 4.31s ease-in-out infinite; animation-delay: -5.33s; --base-op: 0.62;"/><path d="M708,294 L708,347 L558,347 L408,347 L265,347 L109,347" stroke="#39ff14" stroke-width="2" fill="none" stroke-linecap="round" style="animation: circuitPulse 5.78s ease-in-out infinite; animation-delay: -0.26s; --base-op: 0.42;"/><path d="M920,61 L920,138 L920,194 L920,234 L920,390 L920,430" stroke="#00cc33" stroke-width="1" fill="none" stroke-linecap="round" style="animation: circuitPulse 3.99s ease-in-out infinite; animation-delay: -2.79s; --base-op: 0.38;"/><path d="M922,155 L848,155 L848,74 L848,3 L848,0 L848,0" stroke="#00cc33" stroke-width="3" fill="none" stroke-linecap="round" style="animation: circuitPulse 5.21s ease-in-out infinite; animation-delay: -3.59s; --base-op: 0.49;"/><path d="M267,855 L267,900 L156,900 L156,765" stroke="#00ff41" stroke-width="3" fill="none" stroke-linecap="round" style="animation: circuitPulse 5.63s ease-in-out infinite; animation-delay: -0.46s; --base-op: 0.69;"/><path d="M1335,809 L1209,809 L1149,809 L1089,809" stroke="#00cc33" stroke-width="1" fill="none" stroke-linecap="round" style="animation: circuitPulse 3.63s ease-in-out infinite; animation-delay: -2.2s; --base-op: 0.74;"/><path d="M61,484 L61,546 L61,669 L61,769 L0,769 L0,769 L0,769" stroke="#00cc33" stroke-width="1" fill="none" stroke-linecap="round" style="animation: circuitPulse 5.27s ease-in-out infinite; animation-delay: -3.57s; --base-op: 0.46;"/><path d="M1114,12 L1114,0 L1114,0 L1114,0 L1114,0 L1114,0 L1114,0" stroke="#00ff41" stroke-width="1" fill="none" stroke-linecap="round" style="animation: circuitPulse 2.81s ease-in-out infinite; animation-delay: -3.99s; --base-op: 0.62;"/><path d="M364,841 L364,761 L271,761 L148,761" stroke="#0aff9d" stroke-width="1" fill="none" stroke-linecap="round" style="animation: circuitPulse 3.28s ease-in-out infinite; animation-delay: -4.65s; --base-op: 0.69;"/><path d="M1386,606 L1386,521 L1386,374 L1386,322 L1511,322 L1600,322 L1600,469 L1600,608" stroke="#00ff41" stroke-width="2" fill="none" stroke-linecap="round" style="animation: circuitPulse 5.19s ease-in-out infinite; animation-delay: -0.58s; --base-op: 0.6;"/><path d="M653,197 L653,306 L508,306 L630,306 L695,306 L612,306" stroke="#39ff14" stroke-width="2" fill="none" stroke-linecap="round" style="animation: circuitPulse 3.6s ease-in-out infinite; animation-delay: -1.84s; --base-op: 0.52;"/><path d="M1155,457 L1155,373 L1281,373 L1123,373" stroke="#78ffb4" stroke-width="1" fill="none" stroke-linecap="round" style="animation: circuitPulse 4.39s ease-in-out infinite; animation-delay: -5.05s; --base-op: 0.49;"/><path d="M378,86 L295,86 L171,86 L110,86 L17,86 L0,86" stroke="#39ff14" stroke-width="1" fill="none" stroke-linecap="round" style="animation: circuitPulse 3.94s ease-in-out infinite; animation-delay: -0.37s; --base-op: 0.4;"/><path d="M567,882 L567,800 L567,741 L567,638 L567,572 L567,420" stroke="#00ff41" stroke-width="1" fill="none" stroke-linecap="round" style="animation: circuitPulse 5.82s ease-in-out infinite; animation-delay: -1.47s; --base-op: 0.34;"/><path d="M1104,109 L967,109 L967,40 L967,0 L967,147 L967,45 L967,0 L967,160" stroke="#78ffb4" stroke-width="1" fill="none" stroke-linecap="round" style="animation: circuitPulse 5.42s ease-in-out infinite; animation-delay: -0.01s; --base-op: 0.59;"/><path d="M282,588 L427,588 L372,588 L372,705 L372,816 L372,881 L372,736" stroke="#00cc33" stroke-width="1" fill="none" stroke-linecap="round" style="animation: circuitPulse 3.07s ease-in-out infinite; animation-delay: -3.27s; --base-op: 0.49;"/><path d="M602,758 L672,758 L733,758 L833,758 L833,807 L833,900 L833,900 L833,900" stroke="#39ff14" stroke-width="3" fill="none" stroke-linecap="round" style="animation: circuitPulse 4.01s ease-in-out infinite; animation-delay: -3.64s; --base-op: 0.32;"/><path d="M1540,878 L1469,878 L1394,878 L1394,734" stroke="#00ff41" stroke-width="2" fill="none" stroke-linecap="round" style="animation: circuitPulse 3.25s ease-in-out infinite; animation-delay: -2.33s; --base-op: 0.62;"/><path d="M406,590 L562,590 L562,505 L562,367 L562,276 L562,149 L562,76" stroke="#00cc33" stroke-width="1" fill="none" stroke-linecap="round" style="animation: circuitPulse 3.96s ease-in-out infinite; animation-delay: -3.18s; --base-op: 0.55;"/><path d="M947,835 L947,735 L947,659 L947,535 L1048,535 L924,535 L818,535" stroke="#39ff14" stroke-width="1" fill="none" stroke-linecap="round" style="animation: circuitPulse 3.55s ease-in-out infinite; animation-delay: -4.62s; --base-op: 0.64;"/><path d="M1206,722 L1206,848 L1206,900 L1206,900" stroke="#39ff14" stroke-width="1" fill="none" stroke-linecap="round" style="animation: circuitPulse 5.34s ease-in-out infinite; animation-delay: -2.23s; --base-op: 0.56;"/><path d="M111,641 L111,581 L111,505 L111,369 L111,305 L111,146 L111,95 L111,0 L111,0" stroke="#00ff41" stroke-width="3" fill="none" stroke-linecap="round" style="animation: circuitPulse 3.71s ease-in-out infinite; animation-delay: -4.3s; --base-op: 0.69;"/><path d="M1102,485 L1102,638 L1102,689 L1102,845 L1102,687" stroke="#78ffb4" stroke-width="3" fill="none" stroke-linecap="round" style="animation: circuitPulse 5.88s ease-in-out infinite; animation-delay: -3.05s; --base-op: 0.36;"/><path d="M1328,588 L1328,468 L1328,367 L1328,219" stroke="#39ff14" stroke-width="2" fill="none" stroke-linecap="round" style="animation: circuitPulse 3.91s ease-in-out infinite; animation-delay: -5.59s; --base-op: 0.3;"/><path d="M1141,306 L1141,157 L1141,101 L1141,15 L1059,15 L969,15 L880,15 L818,15 L737,15" stroke="#00ff41" stroke-width="1" fill="none" stroke-linecap="round" style="animation: circuitPulse 4.33s ease-in-out infinite; animation-delay: -2.46s; --base-op: 0.57;"/><path d="M97,868 L97,740 L97,596 L97,662 L97,822 L97,886 L97,900 L39,900" stroke="#0aff9d" stroke-width="2" fill="none" stroke-linecap="round" style="animation: circuitPulse 2.89s ease-in-out infinite; animation-delay: -3.31s; --base-op: 0.65;"/><path d="M26,466 L165,466 L88,466 L0,466 L140,466 L231,466 L341,466 L341,308" stroke="#00ff41" stroke-width="3" fill="none" stroke-linecap="round" style="animation: circuitPulse 5.41s ease-in-out infinite; animation-delay: -4.74s; --base-op: 0.51;"/><path d="M264,345 L356,345 L440,345 L552,345 L598,345 L598,253 L598,191 L598,36 L598,0" stroke="#00ff41" stroke-width="1" fill="none" stroke-linecap="round" style="animation: circuitPulse 4.38s ease-in-out infinite; animation-delay: -2.45s; --base-op: 0.56;"/><path d="M1586,683 L1434,683 L1376,683 L1278,683 L1119,683 L1204,683" stroke="#39ff14" stroke-width="2" fill="none" stroke-linecap="round" style="animation: circuitPulse 5.17s ease-in-out infinite; animation-delay: -2.34s; --base-op: 0.3;"/><path d="M1370,226 L1328,226 L1236,226 L1190,226 L1067,226 L1160,226 L1248,226 L1396,226" stroke="#00ff41" stroke-width="2" fill="none" stroke-linecap="round" style="animation: circuitPulse 5.63s ease-in-out infinite; animation-delay: -4.28s; --base-op: 0.64;"/><path d="M1224,732 L1181,732 L1032,732 L992,732 L992,824 L992,887 L992,900 L992,900 L992,900" stroke="#78ffb4" stroke-width="1" fill="none" stroke-linecap="round" style="animation: circuitPulse 5.96s ease-in-out infinite; animation-delay: -4.56s; --base-op: 0.67;"/><path d="M898,804 L833,804 L768,804 L631,804 L523,804 L422,804 L422,644" stroke="#78ffb4" stroke-width="1" fill="none" stroke-linecap="round" style="animation: circuitPulse 3.43s ease-in-out infinite; animation-delay: -0.0s; --base-op: 0.63;"/><path d="M1157,391 L1235,391 L1297,391 L1297,264 L1297,216" stroke="#00ff41" stroke-width="2" fill="none" stroke-linecap="round" style="animation: circuitPulse 3.43s ease-in-out infinite; animation-delay: -4.6s; --base-op: 0.65;"/><path d="M786,705 L658,705 L527,705 L384,705" stroke="#39ff14" stroke-width="1" fill="none" stroke-linecap="round" style="animation: circuitPulse 4.63s ease-in-out infinite; animation-delay: -3.08s; --base-op: 0.53;"/><path d="M1312,711 L1462,711 L1600,711 L1600,711" stroke="#39ff14" stroke-width="1" fill="none" stroke-linecap="round" style="animation: circuitPulse 4.97s ease-in-out infinite; animation-delay: -3.09s; --base-op: 0.43;"/><path d="M396,119 L396,0 L396,0 L273,0" stroke="#00cc33" stroke-width="1" fill="none" stroke-linecap="round" style="animation: circuitPulse 5.36s ease-in-out infinite; animation-delay: -1.51s; --base-op: 0.53;"/><path d="M1245,896 L1245,765 L1245,689 L1245,606 L1104,606 L1033,606 L880,606" stroke="#00ff41" stroke-width="2" fill="none" stroke-linecap="round" style="animation: circuitPulse 4.38s ease-in-out infinite; animation-delay: -2.77s; --base-op: 0.46;"/><path d="M1492,703 L1492,572 L1492,445 L1492,307" stroke="#00b34d" stroke-width="2" fill="none" stroke-linecap="round" style="animation: circuitPulse 2.95s ease-in-out infinite; animation-delay: -4.59s; --base-op: 0.47;"/><path d="M1380,522 L1510,522 L1600,522 L1600,522" stroke="#00b34d" stroke-width="1" fill="none" stroke-linecap="round" style="animation: circuitPulse 4.6s ease-in-out infinite; animation-delay: -5.27s; --base-op: 0.46;"/><path d="M86,622 L86,678 L86,806 L86,900 L86,900 L86,900 L86,900 L86,900 L86,900" stroke="#39ff14" stroke-width="1" fill="none" stroke-linecap="round" style="animation: circuitPulse 4.84s ease-in-out infinite; animation-delay: -1.41s; --base-op: 0.7;"/><path d="M1586,210 L1503,210 L1351,210 L1214,210 L1104,210" stroke="#00b34d" stroke-width="3" fill="none" stroke-linecap="round" style="animation: circuitPulse 4.24s ease-in-out infinite; animation-delay: -4.48s; --base-op: 0.41;"/><path d="M40,772 L136,772 L288,772 L362,772" stroke="#78ffb4" stroke-width="2" fill="none" stroke-linecap="round" style="animation: circuitPulse 5.53s ease-in-out infinite; animation-delay: -5.14s; --base-op: 0.39;"/>
  <circle cx="1564" cy="394" r="2" fill="#00b34d" style="animation: circuitPulse 4.06s ease-in-out infinite; animation-delay: -0.76s; --base-op: 0.7;"/><circle cx="1233" cy="277" r="4" fill="#00cc33" style="animation: circuitPulse 4.78s ease-in-out infinite; animation-delay: -4.85s; --base-op: 0.62;"/><circle cx="1008" cy="277" r="3" fill="#00cc33" style="animation: circuitPulse 3.35s ease-in-out infinite; animation-delay: -3.9s; --base-op: 0.8;"/><circle cx="653" cy="0" r="6" fill="#78ffb4" style="animation: circuitPulse 4.61s ease-in-out infinite; animation-delay: -5.84s; --base-op: 0.69;"/><circle cx="653" cy="107" r="4" fill="#78ffb4" style="animation: circuitPulse 4.73s ease-in-out infinite; animation-delay: -0.71s; --base-op: 0.72;"/><circle cx="1332" cy="746" r="4" fill="#00b34d" style="animation: circuitPulse 2.85s ease-in-out infinite; animation-delay: -2.69s; --base-op: 0.6;"/><circle cx="1049" cy="459" r="6" fill="#00b34d" style="animation: circuitPulse 5.92s ease-in-out infinite; animation-delay: -1.57s; --base-op: 0.64;"/><circle cx="886" cy="900" r="3" fill="#0aff9d" style="animation: circuitPulse 5.3s ease-in-out infinite; animation-delay: -1.14s; --base-op: 0.7;"/><circle cx="619" cy="900" r="4" fill="#39ff14" style="animation: circuitPulse 5.43s ease-in-out infinite; animation-delay: -2.71s; --base-op: 0.85;"/><circle cx="1276" cy="511" r="5" fill="#78ffb4" style="animation: circuitPulse 5.58s ease-in-out infinite; animation-delay: -1.44s; --base-op: 0.55;"/><circle cx="0" cy="615" r="3" fill="#39ff14" style="animation: circuitPulse 3.39s ease-in-out infinite; animation-delay: -3.71s; --base-op: 0.53;"/><circle cx="555" cy="0" r="6" fill="#00b34d" style="animation: circuitPulse 2.71s ease-in-out infinite; animation-delay: -0.91s; --base-op: 0.59;"/><circle cx="1324" cy="220" r="4" fill="#00b34d" style="animation: circuitPulse 3.4s ease-in-out infinite; animation-delay: -3.16s; --base-op: 0.72;"/><circle cx="781" cy="0" r="4" fill="#00cc33" style="animation: circuitPulse 3.22s ease-in-out infinite; animation-delay: -4.99s; --base-op: 0.6;"/><circle cx="459" cy="525" r="5" fill="#00cc33" style="animation: circuitPulse 5.02s ease-in-out infinite; animation-delay: -1.47s; --base-op: 0.66;"/><circle cx="482" cy="737" r="6" fill="#00ff41" style="animation: circuitPulse 3.2s ease-in-out infinite; animation-delay: -1.77s; --base-op: 0.61;"/><circle cx="1017" cy="818" r="3" fill="#00ff41" style="animation: circuitPulse 5.6s ease-in-out infinite; animation-delay: -4.64s; --base-op: 0.43;"/><circle cx="1600" cy="550" r="4" fill="#00cc33" style="animation: circuitPulse 4.19s ease-in-out infinite; animation-delay: -1.31s; --base-op: 0.71;"/><circle cx="1484" cy="233" r="3" fill="#00cc33" style="animation: circuitPulse 2.72s ease-in-out infinite; animation-delay: -5.18s; --base-op: 0.53;"/><circle cx="1550" cy="494" r="6" fill="#78ffb4" style="animation: circuitPulse 5.7s ease-in-out infinite; animation-delay: -1.52s; --base-op: 0.7;"/><circle cx="721" cy="770" r="3" fill="#0aff9d" style="animation: circuitPulse 3.97s ease-in-out infinite; animation-delay: -3.2s; --base-op: 0.73;"/><circle cx="1587" cy="776" r="6" fill="#00ff41" style="animation: circuitPulse 3.31s ease-in-out infinite; animation-delay: -1.9s; --base-op: 0.67;"/><circle cx="1087" cy="541" r="6" fill="#00b34d" style="animation: circuitPulse 5.97s ease-in-out infinite; animation-delay: -0.21s; --base-op: 0.82;"/><circle cx="424" cy="10" r="4" fill="#39ff14" style="animation: circuitPulse 4.82s ease-in-out infinite; animation-delay: -3.26s; --base-op: 0.82;"/><circle cx="744" cy="10" r="2" fill="#39ff14" style="animation: circuitPulse 2.52s ease-in-out infinite; animation-delay: -4.94s; --base-op: 0.41;"/><circle cx="952" cy="337" r="2" fill="#39ff14" style="animation: circuitPulse 3.91s ease-in-out infinite; animation-delay: -5.59s; --base-op: 0.47;"/><circle cx="1424" cy="900" r="6" fill="#0aff9d" style="animation: circuitPulse 4.71s ease-in-out infinite; animation-delay: -5.89s; --base-op: 0.72;"/><circle cx="1259" cy="0" r="3" fill="#00b34d" style="animation: circuitPulse 2.89s ease-in-out infinite; animation-delay: -4.47s; --base-op: 0.66;"/><circle cx="156" cy="181" r="3" fill="#39ff14" style="animation: circuitPulse 3.58s ease-in-out infinite; animation-delay: -2.16s; --base-op: 0.77;"/><circle cx="40" cy="470" r="3" fill="#39ff14" style="animation: circuitPulse 5.1s ease-in-out infinite; animation-delay: -1.74s; --base-op: 0.69;"/><circle cx="1600" cy="188" r="4" fill="#00b34d" style="animation: circuitPulse 3.73s ease-in-out infinite; animation-delay: -1.41s; --base-op: 0.88;"/><circle cx="0" cy="494" r="3" fill="#0aff9d" style="animation: circuitPulse 2.65s ease-in-out infinite; animation-delay: -0.17s; --base-op: 0.72;"/><circle cx="681" cy="0" r="4" fill="#00cc33" style="animation: circuitPulse 4.99s ease-in-out infinite; animation-delay: -4.55s; --base-op: 0.64;"/><circle cx="1071" cy="900" r="4" fill="#39ff14" style="animation: circuitPulse 4.0s ease-in-out infinite; animation-delay: -2.66s; --base-op: 0.65;"/><circle cx="259" cy="82" r="5" fill="#78ffb4" style="animation: circuitPulse 2.8s ease-in-out infinite; animation-delay: -1.99s; --base-op: 0.56;"/><circle cx="1002" cy="82" r="4" fill="#78ffb4" style="animation: circuitPulse 2.52s ease-in-out infinite; animation-delay: -0.82s; --base-op: 0.72;"/><circle cx="1465" cy="666" r="4" fill="#00b34d" style="animation: circuitPulse 3.06s ease-in-out infinite; animation-delay: -0.96s; --base-op: 0.75;"/><circle cx="1392" cy="559" r="3" fill="#00b34d" style="animation: circuitPulse 3.55s ease-in-out infinite; animation-delay: -4.88s; --base-op: 0.52;"/><circle cx="708" cy="294" r="2" fill="#39ff14" style="animation: circuitPulse 3.68s ease-in-out infinite; animation-delay: -3.77s; --base-op: 0.75;"/><circle cx="920" cy="430" r="4" fill="#00cc33" style="animation: circuitPulse 4.29s ease-in-out infinite; animation-delay: -3.79s; --base-op: 0.69;"/><circle cx="848" cy="0" r="4" fill="#00cc33" style="animation: circuitPulse 2.95s ease-in-out infinite; animation-delay: -1.57s; --base-op: 0.6;"/><circle cx="267" cy="855" r="4" fill="#00ff41" style="animation: circuitPulse 4.64s ease-in-out infinite; animation-delay: -2.8s; --base-op: 0.59;"/><circle cx="1089" cy="809" r="4" fill="#00cc33" style="animation: circuitPulse 4.73s ease-in-out infinite; animation-delay: -3.79s; --base-op: 0.64;"/><circle cx="148" cy="761" r="4" fill="#0aff9d" style="animation: circuitPulse 3.88s ease-in-out infinite; animation-delay: -5.83s; --base-op: 0.74;"/><circle cx="364" cy="841" r="2" fill="#0aff9d" style="animation: circuitPulse 5.72s ease-in-out infinite; animation-delay: -1.59s; --base-op: 0.43;"/><circle cx="1600" cy="608" r="4" fill="#00ff41" style="animation: circuitPulse 5.37s ease-in-out infinite; animation-delay: -5.01s; --base-op: 0.57;"/><circle cx="612" cy="306" r="6" fill="#39ff14" style="animation: circuitPulse 3.18s ease-in-out infinite; animation-delay: -1.99s; --base-op: 0.61;"/><circle cx="1123" cy="373" r="5" fill="#78ffb4" style="animation: circuitPulse 3.99s ease-in-out infinite; animation-delay: -5.45s; --base-op: 0.77;"/><circle cx="378" cy="86" r="4" fill="#39ff14" style="animation: circuitPulse 3.64s ease-in-out infinite; animation-delay: -5.22s; --base-op: 0.63;"/><circle cx="602" cy="758" r="3" fill="#39ff14" style="animation: circuitPulse 3.95s ease-in-out infinite; animation-delay: -2.81s; --base-op: 0.5;"/><circle cx="947" cy="835" r="4" fill="#39ff14" style="animation: circuitPulse 4.03s ease-in-out infinite; animation-delay: -0.18s; --base-op: 0.51;"/><circle cx="1206" cy="722" r="2" fill="#39ff14" style="animation: circuitPulse 2.73s ease-in-out infinite; animation-delay: -0.52s; --base-op: 0.61;"/><circle cx="111" cy="641" r="4" fill="#00ff41" style="animation: circuitPulse 5.32s ease-in-out infinite; animation-delay: -1.5s; --base-op: 0.48;"/><circle cx="1102" cy="687" r="3" fill="#78ffb4" style="animation: circuitPulse 4.63s ease-in-out infinite; animation-delay: -1.38s; --base-op: 0.67;"/><circle cx="1102" cy="485" r="2" fill="#78ffb4" style="animation: circuitPulse 3.51s ease-in-out infinite; animation-delay: -1.48s; --base-op: 0.61;"/><circle cx="1328" cy="588" r="4" fill="#39ff14" style="animation: circuitPulse 4.17s ease-in-out infinite; animation-delay: -4.44s; --base-op: 0.42;"/><circle cx="1141" cy="306" r="2" fill="#00ff41" style="animation: circuitPulse 3.59s ease-in-out infinite; animation-delay: -1.56s; --base-op: 0.68;"/><circle cx="39" cy="900" r="5" fill="#0aff9d" style="animation: circuitPulse 3.06s ease-in-out infinite; animation-delay: -3.47s; --base-op: 0.86;"/><circle cx="264" cy="345" r="2" fill="#00ff41" style="animation: circuitPulse 4.18s ease-in-out infinite; animation-delay: -3.99s; --base-op: 0.76;"/><circle cx="1396" cy="226" r="4" fill="#00ff41" style="animation: circuitPulse 4.96s ease-in-out infinite; animation-delay: -5.24s; --base-op: 0.58;"/><circle cx="1370" cy="226" r="2" fill="#00ff41" style="animation: circuitPulse 4.9s ease-in-out infinite; animation-delay: -3.16s; --base-op: 0.73;"/><circle cx="1224" cy="732" r="4" fill="#78ffb4" style="animation: circuitPulse 5.02s ease-in-out infinite; animation-delay: -5.13s; --base-op: 0.73;"/><circle cx="384" cy="705" r="4" fill="#39ff14" style="animation: circuitPulse 5.95s ease-in-out infinite; animation-delay: -2.98s; --base-op: 0.77;"/><circle cx="786" cy="705" r="3" fill="#39ff14" style="animation: circuitPulse 5.78s ease-in-out infinite; animation-delay: -0.51s; --base-op: 0.73;"/><circle cx="1600" cy="711" r="3" fill="#39ff14" style="animation: circuitPulse 3.29s ease-in-out infinite; animation-delay: -3.61s; --base-op: 0.79;"/><circle cx="1312" cy="711" r="2" fill="#39ff14" style="animation: circuitPulse 4.29s ease-in-out infinite; animation-delay: -3.22s; --base-op: 0.65;"/><circle cx="880" cy="606" r="5" fill="#00ff41" style="animation: circuitPulse 4.9s ease-in-out infinite; animation-delay: -1.47s; --base-op: 0.75;"/><circle cx="1492" cy="307" r="5" fill="#00b34d" style="animation: circuitPulse 4.04s ease-in-out infinite; animation-delay: -1.74s; --base-op: 0.59;"/><circle cx="1600" cy="522" r="6" fill="#00b34d" style="animation: circuitPulse 2.82s ease-in-out infinite; animation-delay: -3.91s; --base-op: 0.8;"/><circle cx="86" cy="900" r="4" fill="#39ff14" style="animation: circuitPulse 4.28s ease-in-out infinite; animation-delay: -0.19s; --base-op: 0.52;"/><circle cx="1104" cy="210" r="3" fill="#00b34d" style="animation: circuitPulse 5.95s ease-in-out infinite; animation-delay: -5.54s; --base-op: 0.81;"/><circle cx="362" cy="772" r="6" fill="#78ffb4" style="animation: circuitPulse 3.89s ease-in-out infinite; animation-delay: -3.28s; --base-op: 0.73;"/>
</svg>